<?xml version="1.0" encoding="UTF-8" standalone="no"?><svg xmlns="http://www.w3.org/2000/svg" xmlns:xlink="http://www.w3.org/1999/xlink" contentScriptType="application/ecmascript" contentStyleType="text/css" height="67px" preserveAspectRatio="none" style="width:355px;height:67px;" version="1.1" viewBox="0 0 355 67" width="355px" zoomAndPan="magnify"><defs><filter height="300%" id="f1gcoca3vx39uc" width="300%" x="-1" y="-1"><feGaussianBlur result="blurOut" stdDeviation="2.0"/><feColorMatrix in="blurOut" result="blurOut2" type="matrix" values="0 0 0 0 0 0 0 0 0 0 0 0 0 0 0 0 0 0 .4 0"/><feOffset dx="4.0" dy="4.0" in="blurOut2" result="blurOut3"/><feBlend in="SourceGraphic" in2="blurOut3" mode="normal"/></filter></defs><g><!--MD5=[9f57ac87861df6213de8b6562fe37a6e]
class Bob--><rect fill="#FEFECE" filter="url(#f1gcoca3vx39uc)" height="48" id="Bob" style="stroke: #A80036; stroke-width: 1.5;" width="56" x="6" y="8"/><ellipse cx="21" cy="24" fill="#ADD1B2" rx="11" ry="11" style="stroke: #A80036; stroke-width: 1.0;"/><path d="M23.9688,29.6406 Q23.3906,29.9375 22.75,30.0781 Q22.1094,30.2344 21.4063,30.2344 Q18.9063,30.2344 17.5781,28.5938 Q16.2656,26.9375 16.2656,23.8125 Q16.2656,20.6875 17.5781,19.0313 Q18.9063,17.375 21.4063,17.375 Q22.1094,17.375 22.75,17.5313 Q23.4063,17.6875 23.9688,17.9844 L23.9688,20.7031 Q23.3438,20.125 22.75,19.8594 Q22.1563,19.5781 21.5313,19.5781 Q20.1875,19.5781 19.5,20.6563 Q18.8125,21.7188 18.8125,23.8125 Q18.8125,25.9063 19.5,26.9844 Q20.1875,28.0469 21.5313,28.0469 Q22.1563,28.0469 22.75,27.7813 Q23.3438,27.5 23.9688,26.9219 L23.9688,29.6406 Z "/><text fill="#000000" font-family="sans-serif" font-size="12" lengthAdjust="spacingAndGlyphs" textLength="24" x="35" y="28.1543">Bob</text><line style="stroke: #A80036; stroke-width: 1.5;" x1="7" x2="61" y1="40" y2="40"/><line style="stroke: #A80036; stroke-width: 1.5;" x1="7" x2="61" y1="48" y2="48"/><!--MD5=[1d11bff648c05e5c086236afcf5827b8]
class Alice--><rect fill="#FEFECE" filter="url(#f1gcoca3vx39uc)" height="48" id="Alice" style="stroke: #A80036; stroke-width: 1.5;" width="61" x="167.5" y="8"/><ellipse cx="182.5" cy="24" fill="#ADD1B2" rx="11" ry="11" style="stroke: #A80036; stroke-width: 1.0;"/><path d="M185.4688,29.6406 Q184.8906,29.9375 184.25,30.0781 Q183.6094,30.2344 182.9063,30.2344 Q180.4063,30.2344 179.0781,28.5938 Q177.7656,26.9375 177.7656,23.8125 Q177.7656,20.6875 179.0781,19.0313 Q180.4063,17.375 182.9063,17.375 Q183.6094,17.375 184.25,17.5313 Q184.9063,17.6875 185.4688,17.9844 L185.4688,20.7031 Q184.8438,20.125 184.25,19.8594 Q183.6563,19.5781 183.0313,19.5781 Q181.6875,19.5781 181,20.6563 Q180.3125,21.7188 180.3125,23.8125 Q180.3125,25.9063 181,26.9844 Q181.6875,28.0469 183.0313,28.0469 Q183.6563,28.0469 184.25,27.7813 Q184.8438,27.5 185.4688,26.9219 L185.4688,29.6406 Z "/><text fill="#000000" font-family="sans-serif" font-size="12" lengthAdjust="spacingAndGlyphs" textLength="29" x="196.5" y="28.1543">Alice</text><line style="stroke: #A80036; stroke-width: 1.5;" x1="168.5" x2="227.5" y1="40" y2="40"/><line style="stroke: #A80036; stroke-width: 1.5;" x1="168.5" x2="227.5" y1="48" y2="48"/><!--MD5=[c4243e296ac2ffd7d11c9e3257194116]
class Ted--><rect fill="#FEFECE" filter="url(#f1gcoca3vx39uc)" height="48" id="Ted" style="stroke: #A80036; stroke-width: 1.5;" width="55" x="289.5" y="8"/><ellipse cx="304.5" cy="24" fill="#ADD1B2" rx="11" ry="11" style="stroke: #A80036; stroke-width: 1.0;"/><path d="M307.4688,29.6406 Q306.8906,29.9375 306.25,30.0781 Q305.6094,30.2344 304.9063,30.2344 Q302.4063,30.2344 301.0781,28.5938 Q299.7656,26.9375 299.7656,23.8125 Q299.7656,20.6875 301.0781,19.0313 Q302.4063,17.375 304.9063,17.375 Q305.6094,17.375 306.25,17.5313 Q306.9063,17.6875 307.4688,17.9844 L307.4688,20.7031 Q306.8438,20.125 306.25,19.8594 Q305.6563,19.5781 305.0313,19.5781 Q303.6875,19.5781 303,20.6563 Q302.3125,21.7188 302.3125,23.8125 Q302.3125,25.9063 303,26.9844 Q303.6875,28.0469 305.0313,28.0469 Q305.6563,28.0469 306.25,27.7813 Q306.8438,27.5 307.4688,26.9219 L307.4688,29.6406 Z "/><text fill="#000000" font-family="sans-serif" font-size="12" lengthAdjust="spacingAndGlyphs" textLength="23" x="318.5" y="28.1543">Ted</text><line style="stroke: #A80036; stroke-width: 1.5;" x1="290.5" x2="343.5" y1="40" y2="40"/><line style="stroke: #A80036; stroke-width: 1.5;" x1="290.5" x2="343.5" y1="48" y2="48"/><!--MD5=[838606ef52345285279842dbe5b94377]
link Bob to Alice--><path d="M62.19,32 C91.5,32 137.22,32 167.39,32 " fill="none" id="Bob-Alice" style="stroke: #A80036; stroke-width: 1.0;"/><text fill="#000000" font-family="sans-serif" font-size="13" lengthAdjust="spacingAndGlyphs" textLength="69" x="80.25" y="25.0669">hello World</text><!--MD5=[b89ebbfdb6a54d5db9eb4d77fbc3dfc0]
link Alice to Ted--><path d="M228.65,32 C245.62,32 266.73,32 284.06,32 " fill="none" id="Alice-&gt;Ted" style="stroke: #A80036; stroke-width: 1.0;"/><polygon fill="#A80036" points="289.31,32,280.31,28,284.31,32,280.31,36,289.31,32" style="stroke: #A80036; stroke-width: 1.0;"/><text fill="#000000" font-family="sans-serif" font-size="13" lengthAdjust="spacingAndGlyphs" textLength="24" x="247" y="25.0669">Bye</text><!--MD5=[3ee000a0990c2317313f454d9cc9fffe]
@startuml
Bob-Alice : hello World
Alice->Ted: Bye
@enduml

PlantUML version 1.2020.02(Sun Mar 01 10:22:07 GMT 2020)
(GPL source distribution)
Java Runtime: OpenJDK Runtime Environment
JVM: OpenJDK 64-Bit Server VM
Java Version: 11.0.9+11-Ubuntu-0ubuntu1
Operating System: Linux
Default Encoding: ANSI_X3.4-1968
Language: en
Country: US
--></g></svg>