<?xml version="1.0" encoding="UTF-8" standalone="no"?><svg xmlns="http://www.w3.org/2000/svg" xmlns:xlink="http://www.w3.org/1999/xlink" contentScriptType="application/ecmascript" contentStyleType="text/css" height="67px" preserveAspectRatio="none" style="width:200px;height:67px;" version="1.1" viewBox="0 0 200 67" width="200px" zoomAndPan="magnify"><defs><filter height="300%" id="fqxffz8wdd7f3" width="300%" x="-1" y="-1"><feGaussianBlur result="blurOut" stdDeviation="2.0"/><feColorMatrix in="blurOut" result="blurOut2" type="matrix" values="0 0 0 0 0 0 0 0 0 0 0 0 0 0 0 0 0 0 .4 0"/><feOffset dx="4.0" dy="4.0" in="blurOut2" result="blurOut3"/><feBlend in="SourceGraphic" in2="blurOut3" mode="normal"/></filter></defs><g><!--MD5=[9f57ac87861df6213de8b6562fe37a6e]
class Bob--><rect fill="#FEFECE" filter="url(#fqxffz8wdd7f3)" height="48" id="Bob" style="stroke: #A80036; stroke-width: 1.5;" width="56" x="6" y="8"/><ellipse cx="21" cy="24" fill="#ADD1B2" rx="11" ry="11" style="stroke: #A80036; stroke-width: 1.0;"/><path d="M23.9688,29.6406 Q23.3906,29.9375 22.75,30.0781 Q22.1094,30.2344 21.4063,30.2344 Q18.9063,30.2344 17.5781,28.5938 Q16.2656,26.9375 16.2656,23.8125 Q16.2656,20.6875 17.5781,19.0313 Q18.9063,17.375 21.4063,17.375 Q22.1094,17.375 22.75,17.5313 Q23.4063,17.6875 23.9688,17.9844 L23.9688,20.7031 Q23.3438,20.125 22.75,19.8594 Q22.1563,19.5781 21.5313,19.5781 Q20.1875,19.5781 19.5,20.6563 Q18.8125,21.7188 18.8125,23.8125 Q18.8125,25.9063 19.5,26.9844 Q20.1875,28.0469 21.5313,28.0469 Q22.1563,28.0469 22.75,27.7813 Q23.3438,27.5 23.9688,26.9219 L23.9688,29.6406 Z "/><text fill="#000000" font-family="sans-serif" font-size="12" lengthAdjust="spacingAndGlyphs" textLength="24" x="35" y="28.1543">Bob</text><line style="stroke: #A80036; stroke-width: 1.5;" x1="7" x2="61" y1="40" y2="40"/><line style="stroke: #A80036; stroke-width: 1.5;" x1="7" x2="61" y1="48" y2="48"/><!--MD5=[1d11bff648c05e5c086236afcf5827b8]
class Alice--><rect fill="#FEFECE" filter="url(#fqxffz8wdd7f3)" height="48" id="Alice" style="stroke: #A80036; stroke-width: 1.5;" width="61" x="128.5" y="8"/><ellipse cx="143.5" cy="24" fill="#ADD1B2" rx="11" ry="11" style="stroke: #A80036; stroke-width: 1.0;"/><path d="M146.4688,29.6406 Q145.8906,29.9375 145.25,30.0781 Q144.6094,30.2344 143.9063,30.2344 Q141.4063,30.2344 140.0781,28.5938 Q138.7656,26.9375 138.7656,23.8125 Q138.7656,20.6875 140.0781,19.0313 Q141.4063,17.375 143.9063,17.375 Q144.6094,17.375 145.25,17.5313 Q145.9063,17.6875 146.4688,17.9844 L146.4688,20.7031 Q145.8438,20.125 145.25,19.8594 Q144.6563,19.5781 144.0313,19.5781 Q142.6875,19.5781 142,20.6563 Q141.3125,21.7188 141.3125,23.8125 Q141.3125,25.9063 142,26.9844 Q142.6875,28.0469 144.0313,28.0469 Q144.6563,28.0469 145.25,27.7813 Q145.8438,27.5 146.4688,26.9219 L146.4688,29.6406 Z "/><text fill="#000000" font-family="sans-serif" font-size="12" lengthAdjust="spacingAndGlyphs" textLength="29" x="157.5" y="28.1543">Alice</text><line style="stroke: #A80036; stroke-width: 1.5;" x1="129.5" x2="188.5" y1="40" y2="40"/><line style="stroke: #A80036; stroke-width: 1.5;" x1="129.5" x2="188.5" y1="48" y2="48"/><!--MD5=[838606ef52345285279842dbe5b94377]
link Bob to Alice--><path d="M62.05,32 C81.78,32 108.15,32 128.42,32 " fill="none" id="Bob-Alice" style="stroke: #A80036; stroke-width: 1.0;"/><text fill="#000000" font-family="sans-serif" font-size="13" lengthAdjust="spacingAndGlyphs" textLength="30" x="80.25" y="25.0669">hello</text><!--MD5=[b0e0241a27281cb43356eca6fd8014d3]
@startuml
Bob-Alice : hello  
@enduml

PlantUML version 1.2020.02(Sun Mar 01 10:22:07 GMT 2020)
(GPL source distribution)
Java Runtime: OpenJDK Runtime Environment
JVM: OpenJDK 64-Bit Server VM
Java Version: 11.0.9+11-Ubuntu-0ubuntu1
Operating System: Linux
Default Encoding: ANSI_X3.4-1968
Language: en
Country: US
--></g></svg>