<?xml version="1.0" encoding="UTF-8" standalone="no"?><svg xmlns="http://www.w3.org/2000/svg" xmlns:xlink="http://www.w3.org/1999/xlink" contentScriptType="application/ecmascript" contentStyleType="text/css" height="352px" preserveAspectRatio="none" style="width:291px;height:352px;" version="1.1" viewBox="0 0 291 352" width="291px" zoomAndPan="magnify"><defs><filter height="300%" id="f1mohbdy2teo94" width="300%" x="-1" y="-1"><feGaussianBlur result="blurOut" stdDeviation="2.0"/><feColorMatrix in="blurOut" result="blurOut2" type="matrix" values="0 0 0 0 0 0 0 0 0 0 0 0 0 0 0 0 0 0 .4 0"/><feOffset dx="4.0" dy="4.0" in="blurOut2" result="blurOut3"/><feBlend in="SourceGraphic" in2="blurOut3" mode="normal"/></filter></defs><g><text fill="#000000" font-family="sans-serif" font-size="18" lengthAdjust="spacingAndGlyphs" textLength="267" x="12" y="26.708">While Loop - Activity Diagram</text><ellipse cx="145.5" cy="40.9531" fill="#000000" filter="url(#f1mohbdy2teo94)" rx="10" ry="10" style="stroke: none; stroke-width: 1.0;"/><rect fill="#FEFECE" filter="url(#f1mohbdy2teo94)" height="33.9688" rx="12.5" ry="12.5" style="stroke: #A80036; stroke-width: 1.5;" width="108" x="91.5" y="126.6636"/><text fill="#000000" font-family="sans-serif" font-size="12" lengthAdjust="spacingAndGlyphs" textLength="88" x="101.5" y="147.8022">Eat Hot Wings</text><rect fill="#FEFECE" filter="url(#f1mohbdy2teo94)" height="33.9688" rx="12.5" ry="12.5" style="stroke: #A80036; stroke-width: 1.5;" width="122" x="84.5" y="189.73"/><text fill="#000000" font-family="sans-serif" font-size="12" lengthAdjust="spacingAndGlyphs" textLength="102" x="94.5" y="210.8687">Drink Homebrew</text><polygon fill="#FEFECE" filter="url(#f1mohbdy2teo94)" points="122.5,70.9531,168.5,70.9531,180.5,82.9531,168.5,94.9531,122.5,94.9531,110.5,82.9531,122.5,70.9531" style="stroke: #A80036; stroke-width: 1.5;"/><text fill="#000000" font-family="sans-serif" font-size="11" lengthAdjust="spacingAndGlyphs" textLength="21" x="149.5" y="105.1636">Yes</text><text fill="#000000" font-family="sans-serif" font-size="11" lengthAdjust="spacingAndGlyphs" textLength="46" x="122.5" y="86.7612">Hungry?</text><text fill="#000000" font-family="sans-serif" font-size="11" lengthAdjust="spacingAndGlyphs" textLength="15" x="95.5" y="80.3589">No</text><rect fill="#FEFECE" filter="url(#f1mohbdy2teo94)" height="33.9688" rx="12.5" ry="12.5" style="stroke: #A80036; stroke-width: 1.5;" width="95" x="98" y="265.6987"/><text fill="#000000" font-family="sans-serif" font-size="12" lengthAdjust="spacingAndGlyphs" textLength="75" x="108" y="286.8374">Go To Sleep</text><ellipse cx="145.5" cy="330.6675" fill="#FFFFFF" filter="url(#f1mohbdy2teo94)" rx="11" ry="11" style="stroke: #000000; stroke-width: 1.0;"/><ellipse cx="145.5" cy="330.6675" fill="#000000" rx="6" ry="6" style="stroke: #7F7F7F; stroke-width: 1.0;"/><line style="stroke: #A80036; stroke-width: 1.5;" x1="145.5" x2="145.5" y1="160.6323" y2="189.73"/><polygon fill="#A80036" points="141.5,179.73,145.5,189.73,149.5,179.73,145.5,183.73" style="stroke: #A80036; stroke-width: 1.0;"/><line style="stroke: #A80036; stroke-width: 1.5;" x1="145.5" x2="145.5" y1="94.9531" y2="126.6636"/><polygon fill="#A80036" points="141.5,116.6636,145.5,126.6636,149.5,116.6636,145.5,120.6636" style="stroke: #A80036; stroke-width: 1.0;"/><line style="stroke: #A80036; stroke-width: 1.5;" x1="145.5" x2="145.5" y1="223.6987" y2="233.6987"/><line style="stroke: #A80036; stroke-width: 1.5;" x1="145.5" x2="218.5" y1="233.6987" y2="233.6987"/><polygon fill="#A80036" points="214.5,169.73,218.5,159.73,222.5,169.73,218.5,165.73" style="stroke: #A80036; stroke-width: 1.5;"/><line style="stroke: #A80036; stroke-width: 1.5;" x1="218.5" x2="218.5" y1="82.9531" y2="233.6987"/><line style="stroke: #A80036; stroke-width: 1.5;" x1="218.5" x2="180.5" y1="82.9531" y2="82.9531"/><polygon fill="#A80036" points="190.5,78.9531,180.5,82.9531,190.5,86.9531,186.5,82.9531" style="stroke: #A80036; stroke-width: 1.0;"/><line style="stroke: #A80036; stroke-width: 1.5;" x1="110.5" x2="72.5" y1="82.9531" y2="82.9531"/><polygon fill="#A80036" points="68.5,155.73,72.5,165.73,76.5,155.73,72.5,159.73" style="stroke: #A80036; stroke-width: 1.5;"/><line style="stroke: #A80036; stroke-width: 1.5;" x1="72.5" x2="72.5" y1="82.9531" y2="245.6987"/><line style="stroke: #A80036; stroke-width: 1.5;" x1="72.5" x2="145.5" y1="245.6987" y2="245.6987"/><line style="stroke: #A80036; stroke-width: 1.5;" x1="145.5" x2="145.5" y1="245.6987" y2="265.6987"/><polygon fill="#A80036" points="141.5,255.6987,145.5,265.6987,149.5,255.6987,145.5,259.6987" style="stroke: #A80036; stroke-width: 1.0;"/><line style="stroke: #A80036; stroke-width: 1.5;" x1="145.5" x2="145.5" y1="50.9531" y2="70.9531"/><polygon fill="#A80036" points="141.5,60.9531,145.5,70.9531,149.5,60.9531,145.5,64.9531" style="stroke: #A80036; stroke-width: 1.0;"/><line style="stroke: #A80036; stroke-width: 1.5;" x1="145.5" x2="145.5" y1="299.6675" y2="319.6675"/><polygon fill="#A80036" points="141.5,309.6675,145.5,319.6675,149.5,309.6675,145.5,313.6675" style="stroke: #A80036; stroke-width: 1.0;"/><!--MD5=[1c2c65cfcb988c87082288853765ba8a]
@startuml

title While Loop - Activity Diagram 


start

while (Hungry?)  is (Yes)
  :Eat Hot Wings;
  :Drink Homebrew;
endwhile (No)

:Go To Sleep;

stop

@enduml

PlantUML version 1.2020.02(Sun Mar 01 10:22:07 GMT 2020)
(GPL source distribution)
Java Runtime: OpenJDK Runtime Environment
JVM: OpenJDK 64-Bit Server VM
Java Version: 11.0.9+11-Ubuntu-0ubuntu1
Operating System: Linux
Default Encoding: ANSI_X3.4-1968
Language: en
Country: US
--></g></svg>